# xmcd
#
# Track frame offsets:
#	150
#	15446
#	26648
#	39480
#	51616
#	65047
#	75739
#	87559
#	98010
#	124832
#	140483
#	150958
#	161981
#	183648
#	194925
#	214066
#	227949
#	247423
#	260929
#	274404
#	288450
#	307931
#
# Disc length: 4372 seconds
#
# Revision: 0
# Processed by: cddbd v1.4PL0 Copyright (c) Steve Scherf et al.
# Submitted via: dBpowerAMP V4.0
#
DISCID=5b111216
DTITLE=Sunday night oldies - Sunday night oldies
DYEAR=2003
DGENRE=oldies
TTITLE0=a fork in the road
TTITLE1=these arms of mine
TTITLE2=when a man loves a woman
TTITLE3=tell it like it is
TTITLE4=color my world
TTITLE5=sleepwalk
TTITLE6=if this world were mine
TTITLE7=sad girl
TTITLE8=oh honey
TTITLE9=eighteen with a bullet
TTITLE10=oh my angel
TTITLE11=dont let me be misunderstood
TTITLE12=moonflower
TTITLE13=tell him
TTITLE14=going in circles
TTITLE15=color him father
TTITLE16=he aint heavey hes my brother
TTITLE17=im your puppet
TTITLE18=groove me
TTITLE19=i love you for all seasons
TTITLE20=love can be so wonderful
TTITLE21=lowerrider girl
EXTD=Ernie Sal
EXTT0=
EXTT1=
EXTT2=
EXTT3=
EXTT4=
EXTT5=
EXTT6=
EXTT7=
EXTT8=
EXTT9=
EXTT10=
EXTT11=
EXTT12=
EXTT13=
EXTT14=
EXTT15=
EXTT16=
EXTT17=
EXTT18=
EXTT19=
EXTT20=
EXTT21=
PLAYORDER=
